<svg width="300" height="150" viewBox="0 0 300 150" fill="none" xmlns="http://www.w3.org/2000/svg">
<path d="M87.2788 93.3485C86.9663 92.3921 86.5544 91.5351 86.043 90.7775C85.5411 90.0104 84.9398 89.357 84.239 88.8173C83.5478 88.2775 82.7618 87.8656 81.8811 87.5815C81.0004 87.2974 80.0345 87.1553 78.9834 87.1553C77.2599 87.1553 75.6926 87.6004 74.2817 88.4906C72.8707 89.3807 71.7485 90.6923 70.9152 92.4252C70.0818 94.1582 69.6652 96.2841 69.6652 98.8031C69.6652 101.322 70.0866 103.448 70.9294 105.181C71.7722 106.914 72.9133 108.225 74.3527 109.116C75.7921 110.006 77.4114 110.451 79.2106 110.451C80.8773 110.451 82.3451 110.096 83.614 109.385C84.8924 108.666 85.8868 107.652 86.597 106.346C87.3167 105.029 87.6765 103.481 87.6765 101.701L88.7561 101.928H80.0061V98.8031H91.0856V101.928C91.0856 104.324 90.5743 106.407 89.5515 108.178C88.5383 109.949 87.1368 111.322 85.347 112.297C83.5667 113.263 81.5212 113.746 79.2106 113.746C76.6349 113.746 74.3716 113.14 72.4209 111.928C70.4796 110.716 68.9644 108.992 67.8754 106.758C66.7959 104.523 66.2561 101.871 66.2561 98.8031C66.2561 96.5019 66.5638 94.4328 67.1794 92.5957C67.8044 90.7491 68.6851 89.1771 69.8214 87.8798C70.9578 86.5824 72.3025 85.5881 73.8555 84.8968C75.4085 84.2055 77.1178 83.8599 78.9834 83.8599C80.5174 83.8599 81.9474 84.0919 83.2731 84.5559C84.6084 85.0104 85.7968 85.6591 86.8385 86.5019C87.8896 87.3353 88.7656 88.3343 89.4663 89.4991C90.1671 90.6544 90.65 91.9375 90.9152 93.3485H87.2788ZM98.8236 121.53C98.2554 121.53 97.7487 121.483 97.3037 121.388C96.8586 121.303 96.5508 121.218 96.3804 121.133L97.2326 118.178C98.047 118.386 98.7667 118.462 99.3917 118.405C100.017 118.349 100.571 118.069 101.054 117.567C101.546 117.075 101.996 116.275 102.403 115.167L103.028 113.462L94.9599 91.5303H98.5963L104.619 108.917H104.846L110.869 91.5303H114.505L105.244 116.53C104.827 117.657 104.311 118.59 103.696 119.329C103.08 120.077 102.365 120.631 101.551 120.991C100.746 121.35 99.8368 121.53 98.8236 121.53ZM118.93 113.349V91.5303H122.169V94.9394H122.453C122.907 93.7746 123.641 92.8703 124.655 92.2263C125.668 91.5729 126.885 91.2462 128.305 91.2462C129.744 91.2462 130.942 91.5729 131.899 92.2263C132.865 92.8703 133.618 93.7746 134.157 94.9394H134.385C134.943 93.8125 135.781 92.9176 136.899 92.2548C138.016 91.5824 139.356 91.2462 140.919 91.2462C142.869 91.2462 144.465 91.857 145.706 93.0786C146.946 94.2907 147.566 96.1799 147.566 98.7462V113.349H144.214V98.7462C144.214 97.1364 143.774 95.9858 142.893 95.2945C142.012 94.6032 140.976 94.2576 139.782 94.2576C138.248 94.2576 137.06 94.7216 136.217 95.6496C135.374 96.5682 134.953 97.733 134.953 99.144V113.349H131.544V98.4053C131.544 97.1648 131.141 96.1657 130.336 95.4082C129.531 94.6411 128.494 94.2576 127.226 94.2576C126.354 94.2576 125.54 94.4896 124.782 94.9536C124.034 95.4176 123.428 96.0616 122.964 96.8854C122.51 97.6998 122.282 98.6421 122.282 99.7121V113.349H118.93ZM154.15 113.349V84.2576H163.98C166.262 84.2576 168.128 84.6695 169.576 85.4934C171.035 86.3078 172.114 87.411 172.815 88.8031C173.516 90.1951 173.866 91.7481 173.866 93.4621C173.866 95.1762 173.516 96.7339 172.815 98.1354C172.124 99.537 171.054 100.654 169.605 101.488C168.156 102.312 166.3 102.724 164.037 102.724H156.991V99.5985H163.923C165.485 99.5985 166.74 99.3286 167.687 98.7888C168.634 98.2491 169.321 97.5199 169.747 96.6013C170.182 95.6733 170.4 94.6269 170.4 93.4621C170.4 92.2974 170.182 91.2557 169.747 90.3371C169.321 89.4186 168.629 88.6989 167.673 88.1781C166.717 87.6478 165.448 87.3826 163.866 87.3826H157.673V113.349H154.15ZM179.086 113.349V91.5303H182.325V94.8258H182.552C182.95 93.7462 183.67 92.8703 184.711 92.1979C185.753 91.5256 186.927 91.1894 188.234 91.1894C188.48 91.1894 188.788 91.1942 189.157 91.2036C189.527 91.2131 189.806 91.2273 189.995 91.2462V94.6553C189.882 94.6269 189.621 94.5843 189.214 94.5275C188.816 94.4612 188.395 94.4281 187.95 94.4281C186.889 94.4281 185.942 94.6506 185.109 95.0957C184.285 95.5313 183.632 96.1373 183.149 96.9138C182.675 97.6809 182.439 98.5568 182.439 99.5417V113.349H179.086ZM202.169 113.803C200.199 113.803 198.471 113.334 196.984 112.397C195.507 111.459 194.351 110.148 193.518 108.462C192.694 106.777 192.282 104.807 192.282 102.553C192.282 100.28 192.694 98.2964 193.518 96.6013C194.351 94.9063 195.507 93.59 196.984 92.6525C198.471 91.715 200.199 91.2462 202.169 91.2462C204.138 91.2462 205.862 91.715 207.339 92.6525C208.826 93.59 209.981 94.9063 210.805 96.6013C211.638 98.2964 212.055 100.28 212.055 102.553C212.055 104.807 211.638 106.777 210.805 108.462C209.981 110.148 208.826 111.459 207.339 112.397C205.862 113.334 204.138 113.803 202.169 113.803ZM202.169 110.792C203.665 110.792 204.896 110.408 205.862 109.641C206.828 108.874 207.543 107.866 208.007 106.616C208.471 105.366 208.703 104.011 208.703 102.553C208.703 101.095 208.471 99.7358 208.007 98.4763C207.543 97.2169 206.828 96.1989 205.862 95.4224C204.896 94.6459 203.665 94.2576 202.169 94.2576C200.673 94.2576 199.441 94.6459 198.476 95.4224C197.51 96.1989 196.795 97.2169 196.331 98.4763C195.867 99.7358 195.635 101.095 195.635 102.553C195.635 104.011 195.867 105.366 196.331 106.616C196.795 107.866 197.51 108.874 198.476 109.641C199.441 110.408 200.673 110.792 202.169 110.792ZM217.172 91.5303H220.525V114.939C220.525 116.284 220.293 117.449 219.829 118.434C219.374 119.419 218.683 120.181 217.755 120.721C216.836 121.26 215.676 121.53 214.275 121.53C214.161 121.53 214.047 121.53 213.934 121.53C213.82 121.53 213.706 121.53 213.593 121.53V118.405C213.706 118.405 213.811 118.405 213.905 118.405C214 118.405 214.104 118.405 214.218 118.405C215.24 118.405 215.989 118.102 216.462 117.496C216.936 116.9 217.172 116.047 217.172 114.939V91.5303ZM218.82 87.894C218.167 87.894 217.603 87.6714 217.13 87.2264C216.666 86.7813 216.434 86.2462 216.434 85.6212C216.434 84.9962 216.666 84.4612 217.13 84.0161C217.603 83.571 218.167 83.3485 218.82 83.3485C219.473 83.3485 220.032 83.571 220.496 84.0161C220.97 84.4612 221.206 84.9962 221.206 85.6212C221.206 86.2462 220.97 86.7813 220.496 87.2264C220.032 87.6714 219.473 87.894 218.82 87.894ZM235.812 113.803C233.71 113.803 231.896 113.339 230.372 112.411C228.857 111.474 227.687 110.167 226.863 108.491C226.049 106.805 225.642 104.845 225.642 102.61C225.642 100.375 226.049 98.4053 226.863 96.7008C227.687 94.9868 228.833 93.6515 230.301 92.6951C231.778 91.7292 233.502 91.2462 235.471 91.2462C236.608 91.2462 237.73 91.4356 238.838 91.8144C239.946 92.1932 240.954 92.8087 241.863 93.661C242.772 94.5038 243.497 95.6212 244.037 97.0133C244.576 98.4053 244.846 100.119 244.846 102.155V103.576H228.028V100.678H241.437C241.437 99.447 241.191 98.3485 240.699 97.3826C240.216 96.4167 239.524 95.6544 238.625 95.0957C237.735 94.537 236.683 94.2576 235.471 94.2576C234.136 94.2576 232.981 94.589 232.005 95.2519C231.039 95.9053 230.296 96.7576 229.775 97.8087C229.254 98.8599 228.994 99.9868 228.994 101.189V103.121C228.994 104.769 229.278 106.166 229.846 107.312C230.424 108.448 231.224 109.314 232.247 109.911C233.27 110.498 234.458 110.792 235.812 110.792C236.693 110.792 237.488 110.669 238.199 110.422C238.918 110.167 239.539 109.788 240.059 109.286C240.58 108.775 240.983 108.14 241.267 107.383L244.505 108.292C244.164 109.39 243.592 110.356 242.787 111.189C241.982 112.013 240.987 112.657 239.804 113.121C238.62 113.576 237.289 113.803 235.812 113.803ZM258.809 113.803C256.764 113.803 255.003 113.32 253.525 112.354C252.048 111.388 250.912 110.058 250.116 108.363C249.321 106.668 248.923 104.731 248.923 102.553C248.923 100.337 249.33 98.3817 250.145 96.6866C250.968 94.982 252.114 93.6515 253.582 92.6951C255.059 91.7292 256.783 91.2462 258.753 91.2462C260.287 91.2462 261.669 91.5303 262.9 92.0985C264.131 92.6667 265.14 93.4621 265.926 94.4849C266.712 95.5076 267.199 96.7008 267.389 98.0644H264.037C263.781 97.0701 263.213 96.1894 262.332 95.4224C261.461 94.6459 260.287 94.2576 258.809 94.2576C257.503 94.2576 256.357 94.5985 255.372 95.2803C254.396 95.9527 253.634 96.9044 253.085 98.1354C252.545 99.357 252.275 100.792 252.275 102.439C252.275 104.125 252.54 105.593 253.071 106.843C253.61 108.093 254.368 109.063 255.343 109.755C256.328 110.446 257.484 110.792 258.809 110.792C259.681 110.792 260.471 110.64 261.181 110.337C261.892 110.034 262.493 109.599 262.985 109.03C263.478 108.462 263.828 107.78 264.037 106.985H267.389C267.199 108.273 266.731 109.433 265.983 110.465C265.244 111.488 264.264 112.302 263.042 112.908C261.83 113.505 260.419 113.803 258.809 113.803ZM281.778 91.5303V94.3712H270.471V91.5303H281.778ZM273.767 86.3031H277.119V107.099C277.119 108.045 277.256 108.756 277.531 109.229C277.815 109.693 278.175 110.006 278.61 110.167C279.056 110.318 279.524 110.394 280.017 110.394C280.386 110.394 280.689 110.375 280.926 110.337C281.163 110.29 281.352 110.252 281.494 110.224L282.176 113.235C281.949 113.32 281.631 113.405 281.224 113.491C280.817 113.585 280.301 113.633 279.676 113.633C278.729 113.633 277.801 113.429 276.892 113.022C275.992 112.615 275.244 111.994 274.647 111.161C274.06 110.328 273.767 109.277 273.767 108.008V86.3031Z" fill="white"/>
<path d="M24.0011 93.7084C21.9079 95.8016 21.9079 99.1992 24.0011 101.292L37.1971 114.488C39.2903 116.582 42.6879 116.582 44.7811 114.488C46.8742 112.395 46.8742 108.998 44.7811 106.904L31.585 93.7084C29.4918 91.6152 26.0942 91.6152 24.0011 93.7084Z" fill="white" stroke="white" stroke-width="0.00125"/>
<path d="M68.3368 40.9545C66.2436 43.0477 66.2436 46.4453 68.3368 48.5384L76.1103 56.312L45.3195 87.1028L37.546 79.3292C35.4528 77.2361 32.0552 77.2361 29.962 79.3292C27.8689 81.4224 27.8689 84.82 29.962 86.9132L51.5763 108.527C53.6695 110.621 57.0671 110.621 59.1602 108.527C61.2534 106.434 61.2534 103.037 59.1602 100.943L51.3867 93.1699L82.1775 62.3791L89.951 70.1527C92.0442 72.2458 95.4418 72.2458 97.535 70.1527C99.6282 68.0595 99.6282 64.6619 97.535 62.5687L75.9207 40.9545C73.8276 38.8613 70.4299 38.8614 68.3368 40.9545Z" fill="white" stroke="white" stroke-width="0.00125"/>
<path d="M82.7084 35.001C80.6152 37.0942 80.6152 40.4918 82.7084 42.5849L95.9044 55.781C97.9976 57.8742 101.395 57.8742 103.488 55.781C105.582 53.6878 105.582 50.2902 103.488 48.1971L90.2923 35.001C88.1992 32.9078 84.8015 32.9079 82.7084 35.001Z" fill="white" stroke="white" stroke-width="0.00125"/>
</svg>
